<svg xmlns="http://www.w3.org/2000/svg" width="986.276" height="933.59" viewBox="0 0 986.276 933.59"><defs><style>.a{opacity:0.702;}.b{fill:none;opacity:0.567;}.c,.d,.e,.f{stroke:none;}.d{fill:#773ea1;}.e{fill:#19abb4;}.f{fill:#f2295b;}</style></defs><g class="a" transform="translate(-128.386 90.559)"><g class="b" transform="matrix(0.839, 0.545, -0.545, 0.839, 394.252, -40.688)"><path class="c" d="M31.56,10.939,658.734-.009a22.981,22.981,0,0,1,23.738,23.362l-6.984,393.858c-.233,13.135-11.238,23.972-24.581,24.205L23.733,452.365A22.981,22.981,0,0,1,0,429L6.979,35.145C7.212,22.009,18.217,11.172,31.56,10.939Z"/><path class="d" d="M 659.1708374023438 2.9873046875 C 659.04345703125 2.9873046875 658.9141845703125 2.988372802734375 658.7864379882812 2.99066162109375 L 31.612548828125 13.93865966796875 C 19.887939453125 14.14328002929688 10.1829833984375 23.68011474609375 9.97882080078125 35.19766235351562 L 2.9949951171875 429.0557556152344 C 2.8992919921875 434.4517517089844 4.90447998046875 439.5181884765625 8.64117431640625 443.3217468261719 C 10.502197265625 445.2160339355469 12.69500732421875 446.7036437988281 15.15875244140625 447.7432861328125 C 17.71429443359375 448.8216552734375 20.45220947265625 449.3683776855469 23.29644775390625 449.3683776855469 C 23.42352294921875 449.3683776855469 23.55279541015625 449.3673095703125 23.6805419921875 449.3650207519531 L 650.85400390625 438.416748046875 C 662.5791015625 438.2122192382812 672.2841796875 428.6755676269531 672.48828125 417.1579284667969 L 679.4722900390625 23.2999267578125 C 679.5679931640625 17.90383911132812 677.5628051757812 12.83746337890625 673.826171875 9.033935546875 C 671.965087890625 7.1396484375 669.7722778320312 5.652008056640625 667.3085327148438 4.612396240234375 C 664.7531127929688 3.534027099609375 662.0150756835938 2.9873046875 659.1708374023438 2.9873046875 M 659.1708374023438 -0.0126953125 C 672.30810546875 -0.0126953125 682.7022094726562 10.36117553710938 682.4718017578125 23.35311889648438 L 675.4878540039062 417.2111206054688 C 675.255126953125 430.3464660644531 664.2493896484375 441.1835632324219 650.90625 441.4162902832031 L 23.73291015625 452.3645629882812 C 23.587158203125 452.3670959472656 23.44158935546875 452.3683776855469 23.29644775390625 452.3683776855469 C 10.1591796875 452.3683776855469 -0.23492431640625 441.9943237304688 -0.0045166015625 429.0025634765625 L 6.97930908203125 35.14447021484375 C 7.212158203125 22.00912475585938 18.21734619140625 11.17202758789062 31.5601806640625 10.93911743164062 L 658.7340698242188 -0.008880615234375 C 658.8798828125 -0.011444091796875 659.0257568359375 -0.0126953125 659.1708374023438 -0.0126953125 Z"/></g><g class="b" transform="matrix(0.839, 0.545, -0.545, 0.839, 381.203, 73.205)"><path class="c" d="M24.978.014,673.4.387A25.019,25.019,0,0,1,698.4,25.392l.238,413.846a24.95,24.95,0,0,1-24.964,24.976l-648.426-.373A25.019,25.019,0,0,1,.252,438.836L.014,24.991A24.95,24.95,0,0,1,24.978.014Z"/><path class="e" d="M 24.96319580078125 3.01434326171875 C 21.99676513671875 3.01434326171875 19.12115478515625 3.594818115234375 16.41632080078125 4.739532470703125 C 13.80224609375 5.845794677734375 11.45428466796875 7.430267333984375 9.437744140625 9.448883056640625 C 7.421142578125 11.46762084960938 5.83856201171875 13.81790161132812 4.734130859375 16.43426513671875 C 3.59124755859375 19.14181518554688 3.0125732421875 22.01998901367188 3.0142822265625 24.9888916015625 L 3.252197265625 438.8344421386719 C 3.25396728515625 441.8049011230469 3.83642578125 444.6852416992188 4.9835205078125 447.3955383300781 C 6.09210205078125 450.0149841308594 7.67901611328125 452.3685302734375 9.70013427734375 454.3907165527344 C 11.72113037109375 456.4127197265625 14.0732421875 458.0003356933594 16.69110107421875 459.1093444824219 C 19.39959716796875 460.2568054199219 22.2779541015625 460.8394470214844 25.2462158203125 460.8411560058594 L 673.6702270507812 461.2141723632812 L 673.6848754882812 461.2141723632812 C 676.6513061523438 461.2141723632812 679.5269165039062 460.6336975097656 682.2317504882812 459.4889831542969 C 684.8458251953125 458.3827209472656 687.1937866210938 456.7982482910156 689.2103271484375 454.7796325683594 C 691.2269287109375 452.7608032226562 692.8095092773438 450.4106140136719 693.9138793945312 447.7942504882812 C 695.0567626953125 445.0867004394531 695.6353759765625 442.2085266113281 695.6336669921875 439.2395324707031 L 695.395751953125 25.39407348632812 C 695.39404296875 22.42361450195312 694.8115844726562 19.54324340820312 693.66455078125 16.83297729492188 C 692.5559692382812 14.21343994140625 690.9690551757812 11.8599853515625 688.9479370117188 9.837799072265625 C 686.9269409179688 7.8157958984375 684.5748291015625 6.228179931640625 681.9569702148438 5.11907958984375 C 679.2484741210938 3.97161865234375 676.3701171875 3.38897705078125 673.40185546875 3.38726806640625 L 24.97784423828125 3.01434326171875 L 24.96319580078125 3.01434326171875 M 24.9632568359375 0.01434326171875 C 24.96826171875 0.01434326171875 24.9727783203125 0.01434326171875 24.97784423828125 0.01434326171875 L 673.403564453125 0.38726806640625 C 687.198486328125 0.395263671875 698.3878784179688 11.59036254882812 698.395751953125 25.392333984375 L 698.6336669921875 439.23779296875 C 698.6416625976562 453.0347595214844 687.4727783203125 464.2141723632812 673.684814453125 464.2141723632812 C 673.6798095703125 464.2141723632812 673.67529296875 464.2141723632812 673.6702270507812 464.2141723632812 L 25.2445068359375 463.8411560058594 C 11.4495849609375 463.833251953125 0.26019287109375 452.6381530761719 0.252197265625 438.836181640625 L 0.0142822265625 24.99063110351562 C 0.00640869140625 11.19375610351562 11.17529296875 0.01434326171875 24.9632568359375 0.01434326171875 Z"/></g><g class="b" transform="matrix(0.839, 0.545, -0.545, 0.839, 528.746, -90.579)"><path class="c" d="M24.978.014,673.4.387A25.019,25.019,0,0,1,698.4,25.392l.238,413.846a24.95,24.95,0,0,1-24.964,24.976l-648.426-.373A25.019,25.019,0,0,1,.252,438.836L.014,24.991A24.95,24.95,0,0,1,24.978.014Z"/><path class="f" d="M 24.96319580078125 3.01434326171875 C 21.99676513671875 3.01434326171875 19.12115478515625 3.594818115234375 16.41632080078125 4.739532470703125 C 13.80224609375 5.845794677734375 11.45428466796875 7.430267333984375 9.437744140625 9.448883056640625 C 7.421142578125 11.46762084960938 5.83856201171875 13.81790161132812 4.734130859375 16.43426513671875 C 3.59124755859375 19.14181518554688 3.0125732421875 22.01998901367188 3.0142822265625 24.9888916015625 L 3.252197265625 438.8344421386719 C 3.25396728515625 441.8049011230469 3.83642578125 444.6852416992188 4.9835205078125 447.3955383300781 C 6.09210205078125 450.0149841308594 7.67901611328125 452.3685302734375 9.70013427734375 454.3907165527344 C 11.72113037109375 456.4127197265625 14.0732421875 458.0003356933594 16.69110107421875 459.1093444824219 C 19.39959716796875 460.2568054199219 22.2779541015625 460.8394470214844 25.2462158203125 460.8411560058594 L 673.6702270507812 461.2141723632812 L 673.6848754882812 461.2141723632812 C 676.6513061523438 461.2141723632812 679.5269165039062 460.6336975097656 682.2317504882812 459.4889831542969 C 684.8458251953125 458.3827209472656 687.1937866210938 456.7982482910156 689.2103271484375 454.7796325683594 C 691.2269287109375 452.7608032226562 692.8095092773438 450.4106140136719 693.9138793945312 447.7942504882812 C 695.0567626953125 445.0867004394531 695.6353759765625 442.2085266113281 695.6336669921875 439.2395324707031 L 695.395751953125 25.39407348632812 C 695.39404296875 22.42361450195312 694.8115844726562 19.54324340820312 693.66455078125 16.83297729492188 C 692.5559692382812 14.21343994140625 690.9690551757812 11.8599853515625 688.9479370117188 9.837799072265625 C 686.9269409179688 7.8157958984375 684.5748291015625 6.228179931640625 681.9569702148438 5.11907958984375 C 679.2484741210938 3.97161865234375 676.3701171875 3.38897705078125 673.40185546875 3.38726806640625 L 24.97784423828125 3.01434326171875 L 24.96319580078125 3.01434326171875 M 24.9632568359375 0.01434326171875 C 24.96826171875 0.01434326171875 24.9727783203125 0.01434326171875 24.97784423828125 0.01434326171875 L 673.403564453125 0.38726806640625 C 687.198486328125 0.395263671875 698.3878784179688 11.59036254882812 698.395751953125 25.392333984375 L 698.6336669921875 439.23779296875 C 698.6416625976562 453.0347595214844 687.4727783203125 464.2141723632812 673.684814453125 464.2141723632812 C 673.6798095703125 464.2141723632812 673.67529296875 464.2141723632812 673.6702270507812 464.2141723632812 L 25.2445068359375 463.8411560058594 C 11.4495849609375 463.833251953125 0.26019287109375 452.6381530761719 0.252197265625 438.836181640625 L 0.0142822265625 24.99063110351562 C 0.00640869140625 11.19375610351562 11.17529296875 0.01434326171875 24.9632568359375 0.01434326171875 Z"/></g></g></svg>