<svg xmlns="http://www.w3.org/2000/svg" width="439.393" height="305.208" viewBox="0 0 439.393 305.208"><defs><style>.a{fill:#15aeff;}</style></defs><path class="a" d="M153,53.146v93.573s1.453,14.525,13.073,12.8,29.392-4.154,29.392-4.154,8.374-.726,8.374-15.833V46l-17.43,2.462V142l-4.358.617V49.043l-4.358.588v93.594l-7.989,1.133V50.786Z" transform="translate(-41.881 -12.592)"/><path class="a" d="M242,40.629V53.906l8.715-.828v94.531l5.81-.821V52.257l2.905-.407v94.531l17.43-2.469V49.381l14.525-2.055V33.65Z" transform="translate(-66.243 -9.211)"/><g transform="translate(284.698 9.59)"><path class="a" d="M437.283,13.23c-6.791.552-38.746,5.476-38.746,5.476l-.334.189A12.623,12.623,0,0,0,392,29.789v91.248s1.453,6.493,6.536,5.883S433.4,122,433.4,122s10.894-3.689,10.894-9.129V20.086S444.066,12.715,437.283,13.23ZM419.6,109.3l-9.441,1.336V30.748l9.441-1.336Zm7.989-1.1-3.631.508V28.816l3.631-.508Z" transform="translate(-392 -13.204)"/></g><g transform="translate(36.313 44.451)"><path class="a" d="M95.283,61.23c-6.791.552-38.746,5.476-38.746,5.476L56.2,66.9A12.623,12.623,0,0,0,50,77.789v91.248s1.453,6.493,6.536,5.883S91.4,170,91.4,170s10.894-3.689,10.894-9.129V68.086S102.066,60.715,95.283,61.23ZM77.6,157.3l-9.442,1.336V78.748L77.6,77.412Zm7.989-1.1-3.631.508V76.816l3.631-.508Z" transform="translate(-50 -61.204)"/></g><g transform="translate(72.627 179.537)"><path class="a" d="M145.283,247.23c-6.791.552-38.746,5.476-38.746,5.476l-.334.189a12.623,12.623,0,0,0-6.2,10.894v93.427s1.453,6.493,6.536,5.883,34.861-4.924,34.861-4.924,10.894-3.689,10.894-9.129v-94.96S152.066,246.715,145.283,247.23ZM127.6,345.48l-9.442,1.336v-79.89l9.442-1.336Zm7.989-1.1-3.631.508v-79.89l3.631-.508Z" transform="translate(-100 -247.204)"/></g><path class="a" d="M491,5.854,532.4,0V13.683l-21.788,3.079V46.539L532.4,43.46V60.89L510.609,63.97v47.324L491,114.068Z" transform="translate(-134.402)"/><path class="a" d="M0,275.786s.334-7.909,7.43-8.715,34.135-4.822,34.135-4.822,10-1.983,10,4.307v30.6l-18.157,2.593V278.691l-4.358.617V300.37l-3.631.516V279.824l-6.536.922V360.9l6.536-.922V335.289l3.631-.516v24.533l4.358-.421V334.193l18.157-2.564v30.46s-.32,9.362-7.059,10.168-31.869,4.481-31.869,4.481S0,378.466,0,371.051Z" transform="translate(0 -71.704)"/><path class="a" d="M199,239.553V349.946l17.43-2.462v-31.8l13.923,29.835,4.6-.937-18.52-39.691v-13.08L240.8,344.035l10.495-1.634V232.16l-16.7,2.36v54.594l-4.358-9.34V235.138l-4.358.617-.363,33.9L210.693,237.9Z" transform="translate(-54.472 -63.549)"/><path class="a" d="M289.863,226.916l-.363,15.3,6.9-.973v95.149l4.358-.617V240.621l3.631-.828v95.468L324,332.487V237.338l13.8-1.954V220.14Z" transform="translate(-79.245 -60.259)"/><path class="a" d="M538.863,191.916l-.363,15.3,6.9-.973v95.149l4.358-.617V205.621l3.631-.828v95.468L573,297.487V202.338l13.8-1.954V185.14Z" transform="translate(-147.404 -50.678)"/><path class="a" d="M373,215.613V325.432l39.945-5.81V305.4l-19.972,2.825.363-33.147,19.609-2.774V256.647l-19.972,2.825.363-31.491,19.609-2.767V209.97Z" transform="translate(-102.102 -57.475)"/><path class="a" d="M445.373,204.183l20.851,44.695-23.284,66.04,21.81-3.079,5.447-15.571,6.478,13.886,4.677-.661-9.02-19.333,1.946-5.549L485.6,308.889l24.686-3.493L485.55,252.378,505.377,195.7l-21.81,3.079-9.717,27.78-11.882-24.722Z" transform="translate(-121.246 -53.569)"/><path class="a" d="M299,381.095c.363.182,0,4.256,0,4.256l208.439-29.465V351.63Z" transform="translate(-81.845 -96.252)"/></svg>