<svg xmlns="http://www.w3.org/2000/svg" viewBox="0 0 605 420.25"><defs><style>.cls-1{fill:#19abb4;}</style></defs><g id="Layer_2" data-name="Layer 2"><g id="Wordmark"><g id="Out_of_Context" data-name="Out of Context"><path id="U" class="cls-1" d="M153,55.84V184.68s2,20,18,17.62,40.47-5.72,40.47-5.72,11.53-1,11.53-21.8V46l-24,3.39V178.18l-6,.85V50.19L187,51V179.87l-11,1.56V52.59Z"/><polygon id="T" class="cls-1" points="242 43.26 242 61.54 254 60.4 254 190.56 262 189.43 262 59.27 266 58.71 266 188.87 290 185.47 290 55.31 310 52.48 310 33.65 242 43.26"/><g id="O"><path class="cls-1" d="M454.35,13.24C445,14,401,20.78,401,20.78l-.46.26a17.38,17.38,0,0,0-8.54,15V161.68s2,8.94,9,8.1S449,163,449,163s15-5.08,15-12.57V22.68S463.69,12.53,454.35,13.24ZM430,145.52l-13,1.84v-110l13-1.84ZM441,144l-5,.7v-110l5-.7Z"/></g><g id="O-2" data-name="O"><path class="cls-1" d="M112.35,61.24C103,62,59,68.78,59,68.78l-.46.26a17.38,17.38,0,0,0-8.54,15V209.68s2,8.94,9,8.1S107,211,107,211s15-5.08,15-12.57V70.68S121.69,60.53,112.35,61.24ZM88,193.52l-13,1.84v-110l13-1.84ZM99,192l-5,.7v-110l5-.7Z"/></g><g id="O-3" data-name="O"><path class="cls-1" d="M162.35,247.24C153,248,109,254.78,109,254.78l-.46.26a17.38,17.38,0,0,0-8.54,15V398.68s2,8.94,9,8.1S157,400,157,400s15-5.08,15-12.57V256.68S171.69,246.53,162.35,247.24ZM138,382.52l-13,1.84v-110l13-1.84ZM149,381l-5,.7v-110l5-.7Z"/></g><polygon id="F" class="cls-1" points="491 8.06 548 0 548 18.84 518 23.08 518 64.08 548 59.84 548 83.84 518 88.08 518 153.24 491 157.06 491 8.06"/><path id="C" class="cls-1" d="M0,281S.46,270.11,10.23,269s47-6.64,47-6.64S71,259.63,71,268.29v42.14L46,314V285l-6,.85v29l-5,.71v-29l-9,1.27V398.2l9-1.27v-34l5-.71V396l6-.58v-34l25-3.53v41.94s-.44,12.89-9.72,14S17.4,420,17.4,420,0,422.38,0,412.17Z"/><polygon id="N" class="cls-1" points="199 242.34 199 394.34 223 390.95 223 347.16 242.17 388.24 248.5 386.95 223 332.3 223 314.29 256.55 386.2 271 383.95 271 232.16 248 235.41 248 310.58 242 297.72 242 236.26 236 237.11 235.5 283.79 215.1 240.06 199 242.34"/><polygon id="T-2" data-name="T" class="cls-1" points="290 229.47 289.5 250.53 299 249.19 299 380.2 305 379.35 305 248.34 310 247.2 310 378.65 337 374.83 337 243.82 356 241.13 356 220.14 290 229.47"/><polygon id="T-3" data-name="T" class="cls-1" points="539 194.47 538.5 215.53 548 214.19 548 345.2 554 344.35 554 213.34 559 212.2 559 343.65 586 339.83 586 208.82 605 206.13 605 185.14 539 194.47"/><polygon id="E" class="cls-1" points="373 217.74 373 368.95 428 360.95 428 341.37 400.5 345.26 401 299.62 428 295.8 428 274.24 400.5 278.13 401 234.77 428 230.96 428 209.97 373 217.74"/><polygon class="cls-1" points="446.29 207.38 475 268.92 442.94 359.85 472.97 355.61 480.47 334.17 489.39 353.29 495.83 352.38 483.41 325.76 486.09 318.12 501.68 351.55 535.67 346.74 501.61 273.74 528.91 195.7 498.88 199.94 485.5 238.19 469.14 204.15 446.29 207.38"/><path class="cls-1" d="M299,392.2c.5.25,0,5.86,0,5.86l287-40.57v-5.86Z"/></g></g></g></svg>